/* XPM */
static char *a773d4d60c86415db9c1f20ec1b1ab8dEL0N48zewPD353iR[] = {
/* columns rows colors chars-per-pixel */
"20 20 11 1 ",
"  c None",
". c red",
"X c #FE0101",
"o c #FF0101",
"O c #FD0202",
"+ c #FD0303",
"@ c #FA0505",
"# c #F90606",
"$ c #F80707",
"% c #F90707",
"& c #FA0606",
/* pixels */
"                    ",
"      @+++++++      ",
"    @++++++++++@    ",
"   @++++++++++++@   ",
"  +++++++++++++++@  ",
"  ++++++++++++++++  ",
" @+++++++++++++++++ ",
" ++++++++++++++++++ ",
" ++++++++++++++++++ ",
" ++++++++++++++++++ ",
" ++++++++++++++++++ ",
" ++++++++++++++++++ ",
" ++++++++++++++++++ ",
" ++++++++++++++++++ ",
"  ++++++++++++++++  ",
"  @++++++++++++++@  ",
"   @+++++++++++++   ",
"    @++++++++++@    ",
"      ++++++++      ",
"                    "
};
