/* XPM */
static char *e637e76962964094e50504f546f0ee76H0pcXGAtUz6CTR9a[] = {
/* columns rows colors chars-per-pixel */
"30 30 14 1 ",
"  c None",
". c red",
"X c #FE0101",
"o c #FD0202",
"O c #FC0303",
"+ c #FD0303",
"@ c #FB0404",
"# c #FA0505",
"$ c #FB0505",
"% c #F90606",
"& c #FA0606",
"* c #F70808",
"= c #F70909",
"- c #F80808",
/* pixels */
"                              ",
"           &&&@&O&*           ",
"         @oooooooooo&         ",
"       &oooooooooooooo@       ",
"      oooooooooooooooooo      ",
"     oooooooooooooooooooo     ",
"    oooooooooooooooooooooo    ",
"   &oooooooooooooooooooooo&   ",
"   oooooooooooooooooooooooo   ",
"  @ooooooooooooooooooooooooo  ",
"  oooooooooooooooooooooooooo  ",
" -oooooooooooooooooooooooooo* ",
" &oooooooooooooooooooooooooo& ",
" &oooooooooooooooooooooooooo& ",
" oooooooooooooooooooooooooooo ",
" ooooooooooooooooooooooooooo& ",
" &ooooooooooooooooooooooooooo ",
" &oooooooooooooooooooooooooo& ",
" -oooooooooooooooooooooooooo* ",
"  oooooooooooooooooooooooooo  ",
"  @oooooooooooooooooooooooo@  ",
"   oooooooooooooooooooooooo   ",
"   &oooooooooooooooooooooo&   ",
"    oooooooooooooooooooooo    ",
"     oooooooooooooooooooo     ",
"      oooooooooooooooooo      ",
"       &oooooooooooooo&       ",
"         ooooooooooo&         ",
"           -&&@@o&*           ",
"                              "
};
